<svg width="40" height="40" viewBox="0 0 40 40" fill="none" xmlns="http://www.w3.org/2000/svg">
    <path fill-rule="evenodd" clip-rule="evenodd" d="M19.4174 35.9207L35.0843 20.3045C35.6705 19.7202 36 18.9266 36 18.0989V7.75226C36 6.03233 34.6057 4.63806 32.8858 4.63806H22.3917C21.5681 4.63806 20.778 4.96434 20.1944 5.54549L4.59329 21.08C3.37268 22.2954 3.37057 24.2708 4.58858 25.4888L15.0169 35.9171C16.2317 37.1319 18.2007 37.1335 19.4174 35.9207ZM32 12.5C32 14.433 30.433 16 28.5 16C26.567 16 25 14.433 25 12.5C25 10.567 26.567 9 28.5 9C30.433 9 32 10.567 32 12.5Z" fill="url(#paint_linear)"/>
    <path d="M13.7375 26.2849C13.5844 26.4379 13.4059 26.5689 13.2018 26.6777C13.0011 26.7831 12.792 26.8631 12.5743 26.9175C12.3566 26.9651 12.1491 26.9855 11.9518 26.9787L11.9671 26.0859C12.1746 26.0893 12.3821 26.0519 12.5896 25.9736C12.8005 25.892 12.9688 25.7883 13.0947 25.6624C13.2545 25.5026 13.343 25.3223 13.36 25.1216C13.377 24.9142 13.3208 24.7458 13.1916 24.6165C13.0862 24.5111 12.9569 24.4601 12.8039 24.4635C12.6474 24.4635 12.4943 24.5043 12.3447 24.5859C11.9603 24.807 11.6151 24.9788 11.309 25.1012C11.0063 25.2203 10.7291 25.256 10.4774 25.2084C10.2257 25.1607 9.98762 24.9975 9.76314 24.7186C9.58967 24.4975 9.49104 24.2696 9.46723 24.0349C9.44342 23.7934 9.48083 23.5588 9.57947 23.3309C9.68151 23.0996 9.83286 22.8836 10.0335 22.6829C10.2138 22.5027 10.4315 22.3428 10.6866 22.2034C10.9383 22.0605 11.2257 21.9568 11.5488 21.8921L11.5641 22.7748C11.411 22.819 11.258 22.8802 11.1049 22.9584C10.9519 23.0367 10.8124 23.1353 10.6866 23.2543C10.5879 23.3462 10.5063 23.4482 10.4417 23.5605C10.3771 23.6659 10.343 23.7747 10.3396 23.887C10.3328 23.9958 10.372 24.0962 10.457 24.188C10.5522 24.29 10.6543 24.341 10.7631 24.341C10.8719 24.341 10.991 24.3104 11.1202 24.2492C11.2529 24.1846 11.4042 24.1081 11.5743 24.0196C11.877 23.8462 12.1542 23.7186 12.4059 23.637C12.6542 23.552 12.8923 23.5349 13.1202 23.586C13.3447 23.6336 13.5725 23.773 13.8038 24.0043C14.0113 24.2118 14.1456 24.4516 14.2069 24.7237C14.2681 24.9958 14.2596 25.2696 14.1814 25.5451C14.1031 25.8206 13.9552 26.0672 13.7375 26.2849Z" fill="white"/>
    <path d="M16.9962 22.9241L15.3177 24.6026L11.7464 21.0313L12.3586 20.4191L15.3279 23.3883L16.3942 22.3221L16.9962 22.9241Z" fill="white"/>
    <path d="M19.4806 20.4397L19.1898 20.1489C19.1864 20.3428 19.1524 20.5299 19.0877 20.7101C19.0231 20.8904 18.9177 21.0537 18.7714 21.1999C18.5129 21.4584 18.2238 21.6319 17.9041 21.7203C17.5844 21.8019 17.2664 21.8002 16.95 21.7152C16.6337 21.6302 16.3548 21.4669 16.1133 21.2254L13.8328 18.9449L14.4399 18.3378L16.7256 20.6132C16.8548 20.7425 17.0045 20.8275 17.1745 20.8683C17.3412 20.9057 17.5079 20.8989 17.6745 20.8479C17.8446 20.7935 17.9976 20.6982 18.1337 20.5622C18.2765 20.4193 18.3735 20.2646 18.4245 20.0979C18.4755 19.9245 18.4806 19.7561 18.4398 19.5928C18.4024 19.4262 18.319 19.2782 18.1898 19.149L15.9093 16.8684L16.5215 16.2562L18.7051 18.4398C18.7391 18.4738 18.7663 18.5078 18.7867 18.5418L18.7969 18.5316L20.0928 19.8275L19.4806 20.4397Z" fill="white"/>
    <path d="M22.2939 17.7183C22.0524 17.9598 21.7803 18.14 21.4776 18.2591C21.1715 18.3747 20.8551 18.4291 20.5286 18.4223C20.2021 18.4155 19.8841 18.3492 19.5746 18.2234C19.265 18.0907 18.9861 17.9003 18.7379 17.652C18.4896 17.4037 18.2991 17.1248 18.1664 16.8153C18.0338 16.5057 17.9624 16.186 17.9522 15.8561C17.9386 15.5228 17.9879 15.2014 18.1001 14.8918C18.2124 14.5823 18.3909 14.3051 18.6358 14.0602C18.9351 13.7609 19.2872 13.5552 19.6919 13.4429C20.0967 13.3307 20.5422 13.3273 21.0286 13.4327L20.8398 14.3255C20.5065 14.2507 20.2106 14.2507 19.9521 14.3255C19.6902 14.397 19.4674 14.5245 19.2838 14.7082C19.0763 14.9157 18.9436 15.1571 18.8858 15.4326C18.8314 15.7047 18.8467 15.9819 18.9317 16.2643C19.0168 16.5398 19.1681 16.7863 19.3858 17.004C19.5354 17.1537 19.7089 17.2693 19.9062 17.351C20.1035 17.4326 20.3075 17.4802 20.5184 17.4938C20.7293 17.5006 20.9334 17.47 21.1306 17.402C21.3279 17.3339 21.5014 17.2251 21.651 17.0755C21.8687 16.8578 22.0133 16.6554 22.0847 16.4683C22.1595 16.2779 22.1731 16.067 22.1255 15.8357L21.8908 15.601L21.3143 16.1775L20.7123 15.5755L21.9367 14.351L22.9367 15.351C23.0932 15.8 23.1153 16.2166 23.003 16.601C22.8908 16.9853 22.6544 17.3578 22.2939 17.7183Z" fill="white"/>
    <path d="M17.3526 31.053L16.7404 31.6652L13.1691 28.0939L13.7813 27.4817L17.3526 31.053Z" fill="white"/>
    <path d="M16.8359 25.6719L15.5247 26.9831L16.438 27.8963L17.4992 26.8351L18.0655 27.4014L17.0043 28.4626L18.4736 29.932L17.8614 30.5442L14.2901 26.9729L16.2135 25.0495L16.8359 25.6719Z" fill="white"/>
    <path d="M19.5083 21.7547L20.7276 25.2393L21.947 26.4586L21.3296 27.076L20.1103 25.8566L16.6206 24.6424L17.2277 24.0352L19.794 24.9281L18.9011 22.3618L19.5083 21.7547Z" fill="white"/>
    <defs>
        <linearGradient id="paint_linear" x1="19.8382" y1="4.63806" x2="19.8382" y2="36.8293" gradientUnits="userSpaceOnUse">
            <stop stop-color="#6B57FF"/>
            <stop offset="0.489583" stop-color="#3C99CC"/>
            <stop offset="1" stop-color="#3BEA62"/>
        </linearGradient>
    </defs>
</svg>
